<mxfile host="app.diagrams.net" agent="Mozilla/5.0 (Macintosh; Intel Mac OS X 10_15_7) AppleWebKit/605.1.15 (KHTML, like Gecko) Version/18.1 Safari/605.1.15" version="24.8.4">
  <diagram name="Page-1" id="J0-EagOMF8p2IU3NY5Y-">
    <mxGraphModel dx="1160" dy="951" grid="0" gridSize="10" guides="1" tooltips="1" connect="1" arrows="1" fold="1" page="0" pageScale="1" pageWidth="827" pageHeight="1169" math="0" shadow="0">
      <root>
        <mxCell id="0" />
        <mxCell id="1" parent="0" />
        <mxCell id="DUbkeFYBn5l1KFSl8Ryd-3" value="" style="edgeStyle=entityRelationEdgeStyle;endArrow=ERzeroToMany;startArrow=ERone;endFill=1;startFill=0;rounded=0;" parent="1" source="DUbkeFYBn5l1KFSl8Ryd-5" target="DUbkeFYBn5l1KFSl8Ryd-18" edge="1">
          <mxGeometry width="100" height="100" relative="1" as="geometry">
            <mxPoint x="300" y="80" as="sourcePoint" />
            <mxPoint x="360" y="105" as="targetPoint" />
          </mxGeometry>
        </mxCell>
        <mxCell id="DUbkeFYBn5l1KFSl8Ryd-4" value="Country" style="shape=table;startSize=30;container=1;collapsible=1;childLayout=tableLayout;fixedRows=1;rowLines=0;fontStyle=1;align=center;resizeLast=1;" parent="1" vertex="1">
          <mxGeometry x="343" y="20" width="255" height="141" as="geometry">
            <mxRectangle x="342" y="20" width="77" height="30" as="alternateBounds" />
          </mxGeometry>
        </mxCell>
        <mxCell id="DUbkeFYBn5l1KFSl8Ryd-5" value="" style="shape=partialRectangle;collapsible=0;dropTarget=0;pointerEvents=0;fillColor=none;points=[[0,0.5],[1,0.5]];portConstraint=eastwest;top=0;left=0;right=0;bottom=1;" parent="DUbkeFYBn5l1KFSl8Ryd-4" vertex="1">
          <mxGeometry y="30" width="255" height="28" as="geometry" />
        </mxCell>
        <mxCell id="DUbkeFYBn5l1KFSl8Ryd-6" value="PK" style="shape=partialRectangle;overflow=hidden;connectable=0;fillColor=none;top=0;left=0;bottom=0;right=0;fontStyle=1;" parent="DUbkeFYBn5l1KFSl8Ryd-5" vertex="1">
          <mxGeometry width="30" height="28" as="geometry">
            <mxRectangle width="30" height="28" as="alternateBounds" />
          </mxGeometry>
        </mxCell>
        <mxCell id="DUbkeFYBn5l1KFSl8Ryd-7" value="id" style="shape=partialRectangle;overflow=hidden;connectable=0;fillColor=none;top=0;left=0;bottom=0;right=0;align=left;spacingLeft=6;fontStyle=5;" parent="DUbkeFYBn5l1KFSl8Ryd-5" vertex="1">
          <mxGeometry x="30" width="225" height="28" as="geometry">
            <mxRectangle width="225" height="28" as="alternateBounds" />
          </mxGeometry>
        </mxCell>
        <mxCell id="DUbkeFYBn5l1KFSl8Ryd-8" value="" style="shape=partialRectangle;collapsible=0;dropTarget=0;pointerEvents=0;fillColor=none;points=[[0,0.5],[1,0.5]];portConstraint=eastwest;top=0;left=0;right=0;bottom=0;" parent="DUbkeFYBn5l1KFSl8Ryd-4" vertex="1">
          <mxGeometry y="58" width="255" height="32" as="geometry" />
        </mxCell>
        <mxCell id="DUbkeFYBn5l1KFSl8Ryd-9" value="" style="shape=partialRectangle;overflow=hidden;connectable=0;fillColor=none;top=0;left=0;bottom=0;right=0;" parent="DUbkeFYBn5l1KFSl8Ryd-8" vertex="1">
          <mxGeometry width="30" height="32" as="geometry">
            <mxRectangle width="30" height="32" as="alternateBounds" />
          </mxGeometry>
        </mxCell>
        <mxCell id="DUbkeFYBn5l1KFSl8Ryd-10" value="Introduction" style="shape=partialRectangle;overflow=hidden;connectable=0;fillColor=none;top=0;left=0;bottom=0;right=0;align=left;spacingLeft=6;" parent="DUbkeFYBn5l1KFSl8Ryd-8" vertex="1">
          <mxGeometry x="30" width="225" height="32" as="geometry">
            <mxRectangle width="225" height="32" as="alternateBounds" />
          </mxGeometry>
        </mxCell>
        <mxCell id="DUbkeFYBn5l1KFSl8Ryd-11" value="" style="shape=partialRectangle;collapsible=0;dropTarget=0;pointerEvents=0;fillColor=none;points=[[0,0.5],[1,0.5]];portConstraint=eastwest;top=0;left=0;right=0;bottom=0;" parent="DUbkeFYBn5l1KFSl8Ryd-4" vertex="1">
          <mxGeometry y="90" width="255" height="51" as="geometry" />
        </mxCell>
        <mxCell id="DUbkeFYBn5l1KFSl8Ryd-12" value="" style="shape=partialRectangle;overflow=hidden;connectable=0;fillColor=none;top=0;left=0;bottom=0;right=0;" parent="DUbkeFYBn5l1KFSl8Ryd-11" vertex="1">
          <mxGeometry width="30" height="51" as="geometry">
            <mxRectangle width="30" height="51" as="alternateBounds" />
          </mxGeometry>
        </mxCell>
        <mxCell id="DUbkeFYBn5l1KFSl8Ryd-13" value="" style="shape=partialRectangle;overflow=hidden;connectable=0;fillColor=none;top=0;left=0;bottom=0;right=0;align=left;spacingLeft=6;" parent="DUbkeFYBn5l1KFSl8Ryd-11" vertex="1">
          <mxGeometry x="30" width="225" height="51" as="geometry">
            <mxRectangle width="225" height="51" as="alternateBounds" />
          </mxGeometry>
        </mxCell>
        <mxCell id="DUbkeFYBn5l1KFSl8Ryd-14" value="Elevation" style="shape=table;startSize=30;container=1;collapsible=1;childLayout=tableLayout;fixedRows=1;rowLines=0;fontStyle=1;align=center;resizeLast=1;" parent="1" vertex="1">
          <mxGeometry x="348" y="-168" width="250" height="130" as="geometry" />
        </mxCell>
        <mxCell id="DUbkeFYBn5l1KFSl8Ryd-15" value="" style="shape=partialRectangle;collapsible=0;dropTarget=0;pointerEvents=0;fillColor=none;points=[[0,0.5],[1,0.5]];portConstraint=eastwest;top=0;left=0;right=0;bottom=1;" parent="DUbkeFYBn5l1KFSl8Ryd-14" vertex="1">
          <mxGeometry y="30" width="250" height="30" as="geometry" />
        </mxCell>
        <mxCell id="DUbkeFYBn5l1KFSl8Ryd-16" value="PK" style="shape=partialRectangle;overflow=hidden;connectable=0;fillColor=none;top=0;left=0;bottom=0;right=0;fontStyle=1;" parent="DUbkeFYBn5l1KFSl8Ryd-15" vertex="1">
          <mxGeometry width="30" height="30" as="geometry">
            <mxRectangle width="30" height="30" as="alternateBounds" />
          </mxGeometry>
        </mxCell>
        <mxCell id="DUbkeFYBn5l1KFSl8Ryd-17" value="shipment_idÂ int NOT NULL " style="shape=partialRectangle;overflow=hidden;connectable=0;fillColor=none;top=0;left=0;bottom=0;right=0;align=left;spacingLeft=6;fontStyle=5;" parent="DUbkeFYBn5l1KFSl8Ryd-15" vertex="1">
          <mxGeometry x="30" width="220" height="30" as="geometry">
            <mxRectangle width="220" height="30" as="alternateBounds" />
          </mxGeometry>
        </mxCell>
        <mxCell id="DUbkeFYBn5l1KFSl8Ryd-18" value="" style="shape=partialRectangle;collapsible=0;dropTarget=0;pointerEvents=0;fillColor=none;points=[[0,0.5],[1,0.5]];portConstraint=eastwest;top=0;left=0;right=0;bottom=0;" parent="DUbkeFYBn5l1KFSl8Ryd-14" vertex="1">
          <mxGeometry y="60" width="250" height="30" as="geometry" />
        </mxCell>
        <mxCell id="DUbkeFYBn5l1KFSl8Ryd-19" value="FK1" style="shape=partialRectangle;overflow=hidden;connectable=0;fillColor=none;top=0;left=0;bottom=0;right=0;" parent="DUbkeFYBn5l1KFSl8Ryd-18" vertex="1">
          <mxGeometry width="30" height="30" as="geometry">
            <mxRectangle width="30" height="30" as="alternateBounds" />
          </mxGeometry>
        </mxCell>
        <mxCell id="DUbkeFYBn5l1KFSl8Ryd-20" value="order_id int NOT NULL" style="shape=partialRectangle;overflow=hidden;connectable=0;fillColor=none;top=0;left=0;bottom=0;right=0;align=left;spacingLeft=6;" parent="DUbkeFYBn5l1KFSl8Ryd-18" vertex="1">
          <mxGeometry x="30" width="220" height="30" as="geometry">
            <mxRectangle width="220" height="30" as="alternateBounds" />
          </mxGeometry>
        </mxCell>
        <mxCell id="DUbkeFYBn5l1KFSl8Ryd-21" value="" style="shape=partialRectangle;collapsible=0;dropTarget=0;pointerEvents=0;fillColor=none;points=[[0,0.5],[1,0.5]];portConstraint=eastwest;top=0;left=0;right=0;bottom=0;" parent="DUbkeFYBn5l1KFSl8Ryd-14" vertex="1">
          <mxGeometry y="90" width="250" height="30" as="geometry" />
        </mxCell>
        <mxCell id="DUbkeFYBn5l1KFSl8Ryd-22" value="" style="shape=partialRectangle;overflow=hidden;connectable=0;fillColor=none;top=0;left=0;bottom=0;right=0;" parent="DUbkeFYBn5l1KFSl8Ryd-21" vertex="1">
          <mxGeometry width="30" height="30" as="geometry">
            <mxRectangle width="30" height="30" as="alternateBounds" />
          </mxGeometry>
        </mxCell>
        <mxCell id="DUbkeFYBn5l1KFSl8Ryd-23" value="shipment_date date NOT NULL" style="shape=partialRectangle;overflow=hidden;connectable=0;fillColor=none;top=0;left=0;bottom=0;right=0;align=left;spacingLeft=6;" parent="DUbkeFYBn5l1KFSl8Ryd-21" vertex="1">
          <mxGeometry x="30" width="220" height="30" as="geometry">
            <mxRectangle width="220" height="30" as="alternateBounds" />
          </mxGeometry>
        </mxCell>
        <mxCell id="DUbkeFYBn5l1KFSl8Ryd-24" value="Boundaries" style="shape=table;startSize=35;container=1;collapsible=1;childLayout=tableLayout;fixedRows=1;rowLines=0;fontStyle=1;align=center;resizeLast=1;" parent="1" vertex="1">
          <mxGeometry x="691" y="101" width="250" height="106.4583333333334" as="geometry" />
        </mxCell>
        <mxCell id="DUbkeFYBn5l1KFSl8Ryd-25" value="" style="shape=partialRectangle;collapsible=0;dropTarget=0;pointerEvents=0;fillColor=none;points=[[0,0.5],[1,0.5]];portConstraint=eastwest;top=0;left=0;right=0;bottom=1;" parent="DUbkeFYBn5l1KFSl8Ryd-24" vertex="1">
          <mxGeometry y="35" width="250" height="36" as="geometry" />
        </mxCell>
        <mxCell id="DUbkeFYBn5l1KFSl8Ryd-26" value="PK" style="shape=partialRectangle;overflow=hidden;connectable=0;fillColor=none;top=0;left=0;bottom=0;right=0;fontStyle=1;" parent="DUbkeFYBn5l1KFSl8Ryd-25" vertex="1">
          <mxGeometry width="30" height="36" as="geometry">
            <mxRectangle width="30" height="36" as="alternateBounds" />
          </mxGeometry>
        </mxCell>
        <mxCell id="DUbkeFYBn5l1KFSl8Ryd-27" value="customer_id int NOT NULL " style="shape=partialRectangle;overflow=hidden;connectable=0;fillColor=none;top=0;left=0;bottom=0;right=0;align=left;spacingLeft=6;fontStyle=5;" parent="DUbkeFYBn5l1KFSl8Ryd-25" vertex="1">
          <mxGeometry x="30" width="220" height="36" as="geometry">
            <mxRectangle width="220" height="36" as="alternateBounds" />
          </mxGeometry>
        </mxCell>
        <mxCell id="DUbkeFYBn5l1KFSl8Ryd-28" value="" style="shape=partialRectangle;collapsible=0;dropTarget=0;pointerEvents=0;fillColor=none;points=[[0,0.5],[1,0.5]];portConstraint=eastwest;top=0;left=0;right=0;bottom=0;" parent="DUbkeFYBn5l1KFSl8Ryd-24" vertex="1">
          <mxGeometry y="71" width="250" height="30" as="geometry" />
        </mxCell>
        <mxCell id="DUbkeFYBn5l1KFSl8Ryd-29" value="" style="shape=partialRectangle;overflow=hidden;connectable=0;fillColor=none;top=0;left=0;bottom=0;right=0;" parent="DUbkeFYBn5l1KFSl8Ryd-28" vertex="1">
          <mxGeometry width="30" height="30" as="geometry">
            <mxRectangle width="30" height="30" as="alternateBounds" />
          </mxGeometry>
        </mxCell>
        <mxCell id="DUbkeFYBn5l1KFSl8Ryd-30" value="customer_name char(50) NOT NULL" style="shape=partialRectangle;overflow=hidden;connectable=0;fillColor=none;top=0;left=0;bottom=0;right=0;align=left;spacingLeft=6;" parent="DUbkeFYBn5l1KFSl8Ryd-28" vertex="1">
          <mxGeometry x="30" width="220" height="30" as="geometry">
            <mxRectangle width="220" height="30" as="alternateBounds" />
          </mxGeometry>
        </mxCell>
        <mxCell id="DUbkeFYBn5l1KFSl8Ryd-31" value="Area" style="shape=table;startSize=30;container=1;collapsible=1;childLayout=tableLayout;fixedRows=1;rowLines=0;fontStyle=1;align=center;resizeLast=1;" parent="1" vertex="1">
          <mxGeometry x="25" y="101" width="250" height="100.62500000000003" as="geometry" />
        </mxCell>
        <mxCell id="DUbkeFYBn5l1KFSl8Ryd-32" value="" style="shape=partialRectangle;collapsible=0;dropTarget=0;pointerEvents=0;fillColor=none;points=[[0,0.5],[1,0.5]];portConstraint=eastwest;top=0;left=0;right=0;bottom=1;" parent="DUbkeFYBn5l1KFSl8Ryd-31" vertex="1">
          <mxGeometry y="30" width="250" height="31" as="geometry" />
        </mxCell>
        <mxCell id="DUbkeFYBn5l1KFSl8Ryd-33" value="PK" style="shape=partialRectangle;overflow=hidden;connectable=0;fillColor=none;top=0;left=0;bottom=0;right=0;fontStyle=1;" parent="DUbkeFYBn5l1KFSl8Ryd-32" vertex="1">
          <mxGeometry width="30" height="31" as="geometry">
            <mxRectangle width="30" height="31" as="alternateBounds" />
          </mxGeometry>
        </mxCell>
        <mxCell id="DUbkeFYBn5l1KFSl8Ryd-34" value="customer_id int NOT NULL " style="shape=partialRectangle;overflow=hidden;connectable=0;fillColor=none;top=0;left=0;bottom=0;right=0;align=left;spacingLeft=6;fontStyle=5;" parent="DUbkeFYBn5l1KFSl8Ryd-32" vertex="1">
          <mxGeometry x="30" width="220" height="31" as="geometry">
            <mxRectangle width="220" height="31" as="alternateBounds" />
          </mxGeometry>
        </mxCell>
        <mxCell id="DUbkeFYBn5l1KFSl8Ryd-35" value="" style="shape=partialRectangle;collapsible=0;dropTarget=0;pointerEvents=0;fillColor=none;points=[[0,0.5],[1,0.5]];portConstraint=eastwest;top=0;left=0;right=0;bottom=0;" parent="DUbkeFYBn5l1KFSl8Ryd-31" vertex="1">
          <mxGeometry y="61" width="250" height="30" as="geometry" />
        </mxCell>
        <mxCell id="DUbkeFYBn5l1KFSl8Ryd-36" value="" style="shape=partialRectangle;overflow=hidden;connectable=0;fillColor=none;top=0;left=0;bottom=0;right=0;" parent="DUbkeFYBn5l1KFSl8Ryd-35" vertex="1">
          <mxGeometry width="30" height="30" as="geometry">
            <mxRectangle width="30" height="30" as="alternateBounds" />
          </mxGeometry>
        </mxCell>
        <mxCell id="DUbkeFYBn5l1KFSl8Ryd-37" value="customer_name char(50) NOT NULL" style="shape=partialRectangle;overflow=hidden;connectable=0;fillColor=none;top=0;left=0;bottom=0;right=0;align=left;spacingLeft=6;" parent="DUbkeFYBn5l1KFSl8Ryd-35" vertex="1">
          <mxGeometry x="30" width="220" height="30" as="geometry">
            <mxRectangle width="220" height="30" as="alternateBounds" />
          </mxGeometry>
        </mxCell>
        <mxCell id="DUbkeFYBn5l1KFSl8Ryd-38" value="Landuse" style="shape=table;startSize=30;container=1;collapsible=1;childLayout=tableLayout;fixedRows=1;rowLines=0;fontStyle=1;align=center;resizeLast=1;" parent="1" vertex="1">
          <mxGeometry x="689" y="-38" width="250" height="100" as="geometry" />
        </mxCell>
        <mxCell id="DUbkeFYBn5l1KFSl8Ryd-39" value="" style="shape=partialRectangle;collapsible=0;dropTarget=0;pointerEvents=0;fillColor=none;points=[[0,0.5],[1,0.5]];portConstraint=eastwest;top=0;left=0;right=0;bottom=1;" parent="DUbkeFYBn5l1KFSl8Ryd-38" vertex="1">
          <mxGeometry y="30" width="250" height="30" as="geometry" />
        </mxCell>
        <mxCell id="DUbkeFYBn5l1KFSl8Ryd-40" value="PK" style="shape=partialRectangle;overflow=hidden;connectable=0;fillColor=none;top=0;left=0;bottom=0;right=0;fontStyle=1;" parent="DUbkeFYBn5l1KFSl8Ryd-39" vertex="1">
          <mxGeometry width="30" height="30" as="geometry">
            <mxRectangle width="30" height="30" as="alternateBounds" />
          </mxGeometry>
        </mxCell>
        <mxCell id="DUbkeFYBn5l1KFSl8Ryd-41" value="landuse_id" style="shape=partialRectangle;overflow=hidden;connectable=0;fillColor=none;top=0;left=0;bottom=0;right=0;align=left;spacingLeft=6;fontStyle=5;" parent="DUbkeFYBn5l1KFSl8Ryd-39" vertex="1">
          <mxGeometry x="30" width="220" height="30" as="geometry">
            <mxRectangle width="220" height="30" as="alternateBounds" />
          </mxGeometry>
        </mxCell>
        <mxCell id="DUbkeFYBn5l1KFSl8Ryd-42" value="" style="shape=partialRectangle;collapsible=0;dropTarget=0;pointerEvents=0;fillColor=none;points=[[0,0.5],[1,0.5]];portConstraint=eastwest;top=0;left=0;right=0;bottom=0;" parent="DUbkeFYBn5l1KFSl8Ryd-38" vertex="1">
          <mxGeometry y="60" width="250" height="30" as="geometry" />
        </mxCell>
        <mxCell id="DUbkeFYBn5l1KFSl8Ryd-43" value="" style="shape=partialRectangle;overflow=hidden;connectable=0;fillColor=none;top=0;left=0;bottom=0;right=0;" parent="DUbkeFYBn5l1KFSl8Ryd-42" vertex="1">
          <mxGeometry width="30" height="30" as="geometry">
            <mxRectangle width="30" height="30" as="alternateBounds" />
          </mxGeometry>
        </mxCell>
        <mxCell id="DUbkeFYBn5l1KFSl8Ryd-44" value="customer_name char(50) NOT NULL" style="shape=partialRectangle;overflow=hidden;connectable=0;fillColor=none;top=0;left=0;bottom=0;right=0;align=left;spacingLeft=6;" parent="DUbkeFYBn5l1KFSl8Ryd-42" vertex="1">
          <mxGeometry x="30" width="220" height="30" as="geometry">
            <mxRectangle width="220" height="30" as="alternateBounds" />
          </mxGeometry>
        </mxCell>
        <mxCell id="DUbkeFYBn5l1KFSl8Ryd-52" value="Resources" style="shape=table;startSize=30;container=1;collapsible=1;childLayout=tableLayout;fixedRows=1;rowLines=0;fontStyle=1;align=center;resizeLast=1;" parent="1" vertex="1">
          <mxGeometry x="25" y="261.58" width="250" height="100" as="geometry" />
        </mxCell>
        <mxCell id="DUbkeFYBn5l1KFSl8Ryd-53" value="" style="shape=partialRectangle;collapsible=0;dropTarget=0;pointerEvents=0;fillColor=none;points=[[0,0.5],[1,0.5]];portConstraint=eastwest;top=0;left=0;right=0;bottom=1;" parent="DUbkeFYBn5l1KFSl8Ryd-52" vertex="1">
          <mxGeometry y="30" width="250" height="30" as="geometry" />
        </mxCell>
        <mxCell id="DUbkeFYBn5l1KFSl8Ryd-54" value="PK" style="shape=partialRectangle;overflow=hidden;connectable=0;fillColor=none;top=0;left=0;bottom=0;right=0;fontStyle=1;" parent="DUbkeFYBn5l1KFSl8Ryd-53" vertex="1">
          <mxGeometry width="30" height="30" as="geometry">
            <mxRectangle width="30" height="30" as="alternateBounds" />
          </mxGeometry>
        </mxCell>
        <mxCell id="DUbkeFYBn5l1KFSl8Ryd-55" value="customer_id int NOT NULL " style="shape=partialRectangle;overflow=hidden;connectable=0;fillColor=none;top=0;left=0;bottom=0;right=0;align=left;spacingLeft=6;fontStyle=5;" parent="DUbkeFYBn5l1KFSl8Ryd-53" vertex="1">
          <mxGeometry x="30" width="220" height="30" as="geometry">
            <mxRectangle width="220" height="30" as="alternateBounds" />
          </mxGeometry>
        </mxCell>
        <mxCell id="DUbkeFYBn5l1KFSl8Ryd-56" value="" style="shape=partialRectangle;collapsible=0;dropTarget=0;pointerEvents=0;fillColor=none;points=[[0,0.5],[1,0.5]];portConstraint=eastwest;top=0;left=0;right=0;bottom=0;" parent="DUbkeFYBn5l1KFSl8Ryd-52" vertex="1">
          <mxGeometry y="60" width="250" height="30" as="geometry" />
        </mxCell>
        <mxCell id="DUbkeFYBn5l1KFSl8Ryd-57" value="" style="shape=partialRectangle;overflow=hidden;connectable=0;fillColor=none;top=0;left=0;bottom=0;right=0;" parent="DUbkeFYBn5l1KFSl8Ryd-56" vertex="1">
          <mxGeometry width="30" height="30" as="geometry">
            <mxRectangle width="30" height="30" as="alternateBounds" />
          </mxGeometry>
        </mxCell>
        <mxCell id="DUbkeFYBn5l1KFSl8Ryd-58" value="customer_name char(50) NOT NULL" style="shape=partialRectangle;overflow=hidden;connectable=0;fillColor=none;top=0;left=0;bottom=0;right=0;align=left;spacingLeft=6;" parent="DUbkeFYBn5l1KFSl8Ryd-56" vertex="1">
          <mxGeometry x="30" width="220" height="30" as="geometry">
            <mxRectangle width="220" height="30" as="alternateBounds" />
          </mxGeometry>
        </mxCell>
        <mxCell id="DUbkeFYBn5l1KFSl8Ryd-59" value="Geography" style="shape=table;startSize=35;container=1;collapsible=1;childLayout=tableLayout;fixedRows=1;rowLines=0;fontStyle=1;align=center;resizeLast=1;" parent="1" vertex="1">
          <mxGeometry x="25" y="-38" width="256.3999999999999" height="100" as="geometry" />
        </mxCell>
        <mxCell id="DUbkeFYBn5l1KFSl8Ryd-60" value="" style="shape=partialRectangle;collapsible=0;dropTarget=0;pointerEvents=0;fillColor=none;points=[[0,0.5],[1,0.5]];portConstraint=eastwest;top=0;left=0;right=0;bottom=1;" parent="DUbkeFYBn5l1KFSl8Ryd-59" vertex="1">
          <mxGeometry y="35" width="256.3999999999999" height="30" as="geometry" />
        </mxCell>
        <mxCell id="DUbkeFYBn5l1KFSl8Ryd-61" value="PK" style="shape=partialRectangle;overflow=hidden;connectable=0;fillColor=none;top=0;left=0;bottom=0;right=0;fontStyle=1;" parent="DUbkeFYBn5l1KFSl8Ryd-60" vertex="1">
          <mxGeometry width="30" height="30" as="geometry">
            <mxRectangle width="30" height="30" as="alternateBounds" />
          </mxGeometry>
        </mxCell>
        <mxCell id="DUbkeFYBn5l1KFSl8Ryd-62" value="customer_id int NOT NULL " style="shape=partialRectangle;overflow=hidden;connectable=0;fillColor=none;top=0;left=0;bottom=0;right=0;align=left;spacingLeft=6;fontStyle=5;" parent="DUbkeFYBn5l1KFSl8Ryd-60" vertex="1">
          <mxGeometry x="30" width="226.39999999999992" height="30" as="geometry">
            <mxRectangle width="226.39999999999992" height="30" as="alternateBounds" />
          </mxGeometry>
        </mxCell>
        <mxCell id="DUbkeFYBn5l1KFSl8Ryd-63" value="" style="shape=partialRectangle;collapsible=0;dropTarget=0;pointerEvents=0;fillColor=none;points=[[0,0.5],[1,0.5]];portConstraint=eastwest;top=0;left=0;right=0;bottom=0;" parent="DUbkeFYBn5l1KFSl8Ryd-59" vertex="1">
          <mxGeometry y="65" width="256.3999999999999" height="30" as="geometry" />
        </mxCell>
        <mxCell id="DUbkeFYBn5l1KFSl8Ryd-64" value="" style="shape=partialRectangle;overflow=hidden;connectable=0;fillColor=none;top=0;left=0;bottom=0;right=0;" parent="DUbkeFYBn5l1KFSl8Ryd-63" vertex="1">
          <mxGeometry width="30" height="30" as="geometry">
            <mxRectangle width="30" height="30" as="alternateBounds" />
          </mxGeometry>
        </mxCell>
        <mxCell id="DUbkeFYBn5l1KFSl8Ryd-65" value="customer_name char(50) NOT NULL" style="shape=partialRectangle;overflow=hidden;connectable=0;fillColor=none;top=0;left=0;bottom=0;right=0;align=left;spacingLeft=6;" parent="DUbkeFYBn5l1KFSl8Ryd-63" vertex="1">
          <mxGeometry x="30" width="226.39999999999992" height="30" as="geometry">
            <mxRectangle width="226.39999999999992" height="30" as="alternateBounds" />
          </mxGeometry>
        </mxCell>
        <mxCell id="DUbkeFYBn5l1KFSl8Ryd-66" value="MAP" style="shape=table;startSize=35;container=1;collapsible=1;childLayout=tableLayout;fixedRows=1;rowLines=0;fontStyle=1;align=center;resizeLast=1;" parent="1" vertex="1">
          <mxGeometry x="691" y="253" width="250" height="108.58333333333331" as="geometry" />
        </mxCell>
        <mxCell id="DUbkeFYBn5l1KFSl8Ryd-67" value="" style="shape=partialRectangle;collapsible=0;dropTarget=0;pointerEvents=0;fillColor=none;points=[[0,0.5],[1,0.5]];portConstraint=eastwest;top=0;left=0;right=0;bottom=1;" parent="DUbkeFYBn5l1KFSl8Ryd-66" vertex="1">
          <mxGeometry y="35" width="250" height="39" as="geometry" />
        </mxCell>
        <mxCell id="DUbkeFYBn5l1KFSl8Ryd-68" value="PK" style="shape=partialRectangle;overflow=hidden;connectable=0;fillColor=none;top=0;left=0;bottom=0;right=0;fontStyle=1;" parent="DUbkeFYBn5l1KFSl8Ryd-67" vertex="1">
          <mxGeometry width="30" height="39" as="geometry">
            <mxRectangle width="30" height="39" as="alternateBounds" />
          </mxGeometry>
        </mxCell>
        <mxCell id="DUbkeFYBn5l1KFSl8Ryd-69" value="customer_id int NOT NULL " style="shape=partialRectangle;overflow=hidden;connectable=0;fillColor=none;top=0;left=0;bottom=0;right=0;align=left;spacingLeft=6;fontStyle=5;" parent="DUbkeFYBn5l1KFSl8Ryd-67" vertex="1">
          <mxGeometry x="30" width="220" height="39" as="geometry">
            <mxRectangle width="220" height="39" as="alternateBounds" />
          </mxGeometry>
        </mxCell>
        <mxCell id="DUbkeFYBn5l1KFSl8Ryd-70" value="" style="shape=partialRectangle;collapsible=0;dropTarget=0;pointerEvents=0;fillColor=none;points=[[0,0.5],[1,0.5]];portConstraint=eastwest;top=0;left=0;right=0;bottom=0;" parent="DUbkeFYBn5l1KFSl8Ryd-66" vertex="1">
          <mxGeometry y="74" width="250" height="30" as="geometry" />
        </mxCell>
        <mxCell id="DUbkeFYBn5l1KFSl8Ryd-71" value="" style="shape=partialRectangle;overflow=hidden;connectable=0;fillColor=none;top=0;left=0;bottom=0;right=0;" parent="DUbkeFYBn5l1KFSl8Ryd-70" vertex="1">
          <mxGeometry width="30" height="30" as="geometry">
            <mxRectangle width="30" height="30" as="alternateBounds" />
          </mxGeometry>
        </mxCell>
        <mxCell id="DUbkeFYBn5l1KFSl8Ryd-72" value="customer_name char(50) NOT NULL" style="shape=partialRectangle;overflow=hidden;connectable=0;fillColor=none;top=0;left=0;bottom=0;right=0;align=left;spacingLeft=6;" parent="DUbkeFYBn5l1KFSl8Ryd-70" vertex="1">
          <mxGeometry x="30" width="220" height="30" as="geometry">
            <mxRectangle width="220" height="30" as="alternateBounds" />
          </mxGeometry>
        </mxCell>
        <mxCell id="DUbkeFYBn5l1KFSl8Ryd-92" value="name" style="shape=partialRectangle;overflow=hidden;connectable=0;fillColor=none;top=0;left=0;bottom=0;right=0;align=left;spacingLeft=6;" parent="1" vertex="1">
          <mxGeometry x="373" y="103" width="126" height="30" as="geometry">
            <mxRectangle width="220" height="30" as="alternateBounds" />
          </mxGeometry>
        </mxCell>
        <mxCell id="DUbkeFYBn5l1KFSl8Ryd-93" value="type" style="shape=partialRectangle;overflow=hidden;connectable=0;fillColor=none;top=0;left=0;bottom=0;right=0;align=left;spacingLeft=6;" parent="1" vertex="1">
          <mxGeometry x="373" y="130" width="129" height="30" as="geometry">
            <mxRectangle width="220" height="30" as="alternateBounds" />
          </mxGeometry>
        </mxCell>
      </root>
    </mxGraphModel>
  </diagram>
</mxfile>
